<svg width="20" height="20" viewBox="0 0 20 20" fill="none" xmlns="http://www.w3.org/2000/svg">
<path d="M16.7432 11.9541L12.7852 14.3291L17.2334 11.6602L16.7432 11.9541ZM7.53711 11.1172C7.54203 11.0918 7.54882 11.067 7.55469 11.042C7.54882 11.067 7.54203 11.0918 7.53711 11.1172ZM17.4443 11.042C17.4502 11.067 17.457 11.0918 17.4619 11.1172C17.457 11.0918 17.4502 11.067 17.4443 11.042ZM7.58105 10.9385C7.5896 10.9092 7.59857 10.8802 7.6084 10.8516C7.59857 10.8802 7.5896 10.9092 7.58105 10.9385ZM17.3906 10.8516C17.4005 10.8802 17.4094 10.9092 17.418 10.9385C17.4094 10.9092 17.4005 10.8802 17.3906 10.8516ZM7.64453 10.7568C7.6545 10.732 7.66388 10.707 7.6748 10.6826C7.66388 10.707 7.6545 10.732 7.64453 10.7568ZM17.3242 10.6826C17.3352 10.7071 17.3455 10.7319 17.3555 10.7568C17.3455 10.7319 17.3352 10.7071 17.3242 10.6826ZM7.71777 10.5938C7.73109 10.5676 7.74535 10.5421 7.75977 10.5166C7.74535 10.5421 7.73109 10.5676 7.71777 10.5938ZM17.2402 10.5166C17.2546 10.5419 17.268 10.5677 17.2812 10.5938C17.268 10.5677 17.2546 10.5419 17.2402 10.5166ZM7.81348 10.4277C7.8263 10.4076 7.83805 10.3868 7.85156 10.3672C7.83805 10.3868 7.8263 10.4076 7.81348 10.4277ZM17.1475 10.3672C17.161 10.3868 17.1727 10.4076 17.1855 10.4277C17.1727 10.4076 17.161 10.3868 17.1475 10.3672ZM7.93457 10.2559C7.94337 10.2448 7.95191 10.2335 7.96094 10.2227C7.95191 10.2335 7.94337 10.2448 7.93457 10.2559ZM17.0381 10.2227C17.0471 10.2335 17.0556 10.2448 17.0645 10.2559C17.0556 10.2448 17.0471 10.2335 17.0381 10.2227ZM8.2207 9.96191C8.23176 9.95271 8.24363 9.94451 8.25488 9.93555C8.24363 9.94452 8.23175 9.95271 8.2207 9.96191ZM16.7441 9.93555C16.7554 9.94451 16.7673 9.95271 16.7783 9.96191C16.7673 9.95271 16.7554 9.94451 16.7441 9.93555ZM8.37012 9.84961C8.38605 9.83868 8.40269 9.82883 8.41895 9.81836C8.40269 9.82883 8.38605 9.83868 8.37012 9.84961ZM16.5801 9.81836C16.5963 9.82883 16.613 9.83869 16.6289 9.84961C16.613 9.83868 16.5963 9.82883 16.5801 9.81836ZM8.52051 9.75586C8.54028 9.74473 8.56087 9.73508 8.58105 9.72461C8.56087 9.73508 8.54028 9.74473 8.52051 9.75586ZM16.418 9.72461C16.4382 9.73507 16.4587 9.74473 16.4785 9.75586C16.4587 9.74473 16.4382 9.73507 16.418 9.72461ZM8.69629 9.66895C8.71349 9.66138 8.7306 9.65357 8.74805 9.64648C8.7306 9.65357 8.71349 9.66138 8.69629 9.66895ZM16.251 9.64648C16.2684 9.65356 16.2855 9.66139 16.3027 9.66895C16.2855 9.66139 16.2684 9.65356 16.251 9.64648ZM8.86621 9.60352C8.88698 9.59658 8.90765 9.58928 8.92871 9.58301C8.90765 9.58927 8.88698 9.59658 8.86621 9.60352ZM16.0703 9.58301C16.0914 9.58927 16.112 9.59659 16.1328 9.60352C16.112 9.59659 16.0914 9.58927 16.0703 9.58301ZM9.05664 9.55078C9.07486 9.54665 9.09292 9.54171 9.11133 9.53809C9.09292 9.54171 9.07486 9.54666 9.05664 9.55078ZM15.8877 9.53809C15.9061 9.5417 15.9242 9.54666 15.9424 9.55078C15.9242 9.54666 15.9061 9.5417 15.8877 9.53809Z" fill="#7D7D7D" stroke="#7D7D7D"/>
</svg>
